<svg width="32" height="32" viewBox="0 0 24 24" xmlns="http://www.w3.org/2000/svg"><path fill="currentColor" d="M 19.07,3.5 20.5,4.93 4.93,20.5 3.5,19.07 19.07,3.5"/><path d="m 7.5,2 c -1.79,1.15 -3,3.18 -3,5.5 0,2.32 1.21,4.35 3.03,5.5 C 4.46,13 2,10.54 2,7.5 2,4.4624339 4.462434,2 7.5,2 M 12.89,5.93 11.41,5 9.97,6 10.39,4.3 9,3.24 10.75,3.12 11.33,1.47 12,3.1 13.73,3.13 12.38,4.26 12.89,5.93 M 9.59,9.54 8.43,8.81 7.31,9.59 7.65,8.27 6.56,7.44 7.92,7.35 8.37,6.06 8.88,7.33 10.24,7.36 9.19,8.23 9.59,9.54" fill="currentColor" id="left"/><path d="m 19,13.5 c 0,3.037566 -2.462434,5.5 -5.5,5.5 -1.22,0 -2.35,-0.4 -3.26,-1.07 l 7.69,-7.69 C 18.6,11.15 19,12.28 19,13.5 m -4.4,6.58 2.77,-1.15 -0.24,3.35 -2.53,-2.2 m 4.33,-2.7 1.15,-2.77 2.2,2.54 -3.35,0.23 m 1.15,-4.96 -1.14,-2.78 3.34,0.24 -2.2,2.54 m -10.45,6.51 2.77,1.15 -2.53,2.19 z" fill="currentColor" id="right"/> </svg>
