<svg xmlns="http://www.w3.org/2000/svg" width="215" height="60" xmlns:v="https://vecta.io/nano"><linearGradient id="A"><stop offset="0" stop-opacity="0"/><stop offset="1" stop-opacity=".566"/></linearGradient><linearGradient id="B"><stop offset="0"/><stop offset=".868" stop-opacity="0"/></linearGradient><path d="M99.942 54.334L90.228 60h-8.032L0 48.038l1.944-2.009" fill="url(#A)"/><g fill="#ef6922" stroke="#000"><path d="M1.944 46.029c-1.791-1.648-.924-2.707 0-3.753l85.265-29.86 10.764 9.722v29.696l-10.764 2.802z" stroke-width="1.81"/><path d="M87.26 2.419l12.104 14.238v37.236l-12.104 4.43z" stroke-width="1.157"/></g><ellipse cx="93.108" cy="33.142" rx="4.068" ry="19.655" fill="url(#B)" stroke="#000" stroke-width="1.164"/><g fill="#fff"><path d="M69.871 18.417c-2.18.763-4.442 7.698-4.442 17.194s2.002 16.996 4.474 17.108l8.989 1.045c-2.463-.249-4.488-10.092-4.488-19.588s2.414-18.192 4.784-19.022z" stroke="#000" stroke-width="1.145"/><path d="M53.16 24.269c-2.432.852-5.72 7.485-5.72 13.994s2.637 12.592 5.067 12.837l-5.815-.587c-2.2-.222-4.407-5.697-4.407-12.206s2.207-11.003 4.442-11.785z" stroke="#000" stroke-width="1.013"/><path d="M27.05 48.484c-2.535-.274-4.56-3.036-4.56-7.324s2.039-6.669 4.608-7.764l2.977-1.108c-2.153.931-4.354 4.268-4.354 8.556s2.532 7.77 5.067 8.044z" stroke="#000" stroke-width=".903"/><path d="M125.385 24.693c-5.208-.268-9.413 1.332-12.396 4.264s-4.762 6.995-5.961 11.598l-.006.016-.004.018c-.686 2.826-1.816 6.248-2.701 9.621s-1.587 6.675-1.129 9.688l4.191-.637c-.274-1.8.202-4.785 1.039-7.975.59-2.25 1.273-4.56 1.92-6.842 1.234.744 2.519 1.393 4.014 1.742 2.514.588 5.386.335 9.018-.893l.027-.008.027-.01c2.35-.865 4.848-2.217 6.906-4.186s3.682-4.643 3.902-7.883l.01-.164-.014-.162c-.198-2.302-1.045-4.36-2.619-5.77s-3.654-2.096-6.064-2.404l-.08-.01zm-.307 4.236c1.868.249 3.031.74 3.701 1.34.646.578 1.029 1.367 1.184 2.787-.174 1.947-1.099 3.567-2.564 4.969-1.495 1.431-3.52 2.555-5.414 3.256-3.156 1.063-5.084 1.146-6.668.775-1.192-.279-2.371-.96-3.684-1.828 1.061-3.471 2.43-6.38 4.328-8.246 2.152-2.115 4.885-3.251 9.117-3.053zM143.99 2.057c-2.015 9.563-6.032 16.547-8.32 32.031-.605 4.091-.272 7.206 1.178 9.473s4.164 3.214 6.646 2.84c4.964-.748 9.934-5.268 13.115-11.885l-3.822-1.836c-2.716 5.649-7.337 9.139-9.926 9.529-1.294.195-1.849-.008-2.441-.934s-1.075-3.048-.555-6.566c2.21-14.952 6.117-21.537 8.275-31.777zm32.395 22.629c-.111 11.797-6.178 17.246-9.807 17.58-1.814.167-3.085-.45-3.947-2.635s-.96-6.208 1.109-12.049l-3.998-1.416c-2.28 6.434-2.485 11.402-1.057 15.021s4.847 5.617 8.281 5.301c6.869-.633 13.534-8.542 13.658-21.764zm9.129-.551c-2.582 3.658-4.247 9.298-4.125 14.191.061 2.447.549 4.826 2.246 6.545s4.52 2.124 7.408 1.113l-1.4-4.002c-1.969.689-2.512.393-2.99-.092s-.977-1.811-1.023-3.67c-.093-3.717 1.55-9.09 3.35-11.641zm17.064.504c-.943-.043-1.834.026-2.621.092l-.205.018-.197.055c-3.595 1.02-6.236 2.886-7.551 5.539s-1.243 5.746-.449 9.041l.029.117.041.113c1.511 4.139 5.353 6.506 9.332 6.895s8.284-1.082 11.146-4.559l-3.273-2.695c-1.901 2.309-4.81 3.292-7.461 3.033-2.165-.212-3.988-1.215-5.094-2.914 1.325-.386 3.888-.928 6.516-1.891 2.796-1.025 5.859-2.433 6.965-5.582l.186-.527-.098-.549c-.511-2.858-2.325-4.842-4.326-5.605-1.001-.382-1.996-.537-2.939-.58zm-2.062 4.33c1.345-.097 2.685-.094 3.49.213.677.258 1.09.71 1.404 1.676-.562.837-1.982 1.874-4.078 2.643-2.133.782-4.332 1.252-6.045 1.744-.016-1.197.129-2.234.518-3.02.671-1.355 2.014-2.448 4.711-3.256z" stroke-width=".378" stroke="#1a1a1a"/><path d="M182.861 1.752c-2.658.443-4.088 2.499-4.869 4.451-1.185 2.96-1.379 5.104-.699 6.777s2.125 2.57 3.49 3.254 2.742 1.231 3.76 2.031 1.733 1.761 1.943 3.646l.055.484.383.303 1.779 1.4.666-1.189c1.61-2.877 2.839-4.994 5.152-7.305 1.222-1.221 3.302-2.003 4.977-3.789 1.096-1.169 1.83-2.768 1.674-4.488-.111-1.222-.698-2.256-1.512-2.932s-1.808-1.025-2.814-1.174c-2.013-.299-4.128.114-5.602 1.207-.879.652-1.562 1.519-2.131 2.414-.055-.2-.031-.372-.098-.572-.407-1.217-1.036-2.435-2.049-3.346a4.89 4.89 0 0 0-4.105-1.174zm.383 2.301c.983-.164 1.581.084 2.162.607s1.077 1.392 1.396 2.35.47 1.993.473 2.746c.001.138-.019.189-.027.305l-.176.262c-.143.212-.284.253-.412.828-.032.144-.086.367.051.723s.594.695.9.754c.614.117.728-.065.893-.143.731-.346.844-.883.955-1.32.022-.085.013-.188.029-.275.142-.207.269-.352.393-.6.729-1.458 1.761-3.251 2.752-3.986.738-.547 2.487-.979 3.871-.773.692.103 1.28.341 1.666.662s.62.689.68 1.348c.083.911-.335 1.916-1.055 2.684-1.18 1.259-3.218 2.033-4.922 3.734-2.016 2.014-3.292 4.007-4.555 6.174-.504-1.575-1.287-2.874-2.334-3.697-1.386-1.09-2.937-1.674-4.158-2.285s-2.02-1.174-2.373-2.045-.369-2.356.703-5.035c.657-1.642 1.382-2.731 3.088-3.016z" stroke="#1a1a1a" stroke-width=".616" paint-order="normal"/></g><path d="M187.646 21.783c-.968-8.659-13.085-3.87-8.572-15.147.719-1.797 1.797-3.369 3.979-3.733 5.22-.871 6.08 7.995 4.952 8.529-.683.324.494-.989.832-1.665.74-1.48 1.759-3.405 3.101-4.4 2.212-1.641 7.73-1.693 8.072 2.068.12 1.316-.456 2.617-1.364 3.585-1.427 1.522-3.486 2.3-4.949 3.762-2.421 2.418-3.73 4.673-5.345 7.559z" fill="#d35f8d" stroke-width="1.954" stroke="#fff"/></svg>