<?xml version="1.0" encoding="UTF-8" standalone="no"?>
<svg
   width="215"
   height="60"
   version="1.1"
   id="svg12"
   sodipodi:docname="wordmark.svg"
   inkscape:version="1.3.2 (091e20ef0f, 2023-11-25)"
   xmlns:inkscape="http://www.inkscape.org/namespaces/inkscape"
   xmlns:sodipodi="http://sodipodi.sourceforge.net/DTD/sodipodi-0.dtd"
   xmlns="http://www.w3.org/2000/svg"
   xmlns:svg="http://www.w3.org/2000/svg">
  <defs
     id="defs12" />
  <sodipodi:namedview
     id="namedview12"
     pagecolor="#ffffff"
     bordercolor="#000000"
     borderopacity="0.25"
     inkscape:showpageshadow="2"
     inkscape:pageopacity="0.0"
     inkscape:pagecheckerboard="0"
     inkscape:deskcolor="#d1d1d1"
     inkscape:zoom="8.5116279"
     inkscape:cx="170.12022"
     inkscape:cy="44.468579"
     inkscape:window-width="1498"
     inkscape:window-height="1240"
     inkscape:window-x="0"
     inkscape:window-y="0"
     inkscape:window-maximized="0"
     inkscape:current-layer="g11" />
  <linearGradient
     id="A">
    <stop
       offset="0"
       stop-opacity="0"
       id="stop1" />
    <stop
       offset="1"
       stop-opacity=".566"
       id="stop2" />
  </linearGradient>
  <linearGradient
     id="B">
    <stop
       offset="0"
       id="stop3" />
    <stop
       offset=".868"
       stop-opacity="0"
       id="stop4" />
  </linearGradient>
  <path
     d="M99.942 54.334L90.228 60h-8.032L0 48.038l1.944-2.009"
     fill="url(#A)"
     id="path4" />
  <g
     fill="#ef6922"
     stroke="#000"
     id="g6"
     inkscape:label="g6">
    <path
       d="M1.944 46.029c-1.791-1.648-.924-2.707 0-3.753l85.265-29.86 10.764 9.722v29.696l-10.764 2.802z"
       stroke-width="1.81"
       id="path5" />
    <path
       d="M87.26 2.419l12.104 14.238v37.236l-12.104 4.43z"
       stroke-width="1.157"
       id="path6" />
  </g>
  <ellipse
     cx="93.108"
     cy="33.142"
     rx="4.068"
     ry="19.655"
     fill="url(#B)"
     stroke="#000"
     stroke-width="1.164"
     id="ellipse6" />
  <g
     fill="#fff"
     id="g11">
    <path
       d="M69.871 18.417c-2.18.763-4.442 7.698-4.442 17.194s2.002 16.996 4.474 17.108l8.989 1.045c-2.463-.249-4.488-10.092-4.488-19.588s2.414-18.192 4.784-19.022z"
       stroke="#000"
       stroke-width="1.145"
       id="path7" />
    <path
       d="M53.16 24.269c-2.432.852-5.72 7.485-5.72 13.994s2.637 12.592 5.067 12.837l-5.815-.587c-2.2-.222-4.407-5.697-4.407-12.206s2.207-11.003 4.442-11.785z"
       stroke="#000"
       stroke-width="1.013"
       id="path8" />
    <path
       d="M27.05 48.484c-2.535-.274-4.56-3.036-4.56-7.324s2.039-6.669 4.608-7.764l2.977-1.108c-2.153.931-4.354 4.268-4.354 8.556s2.532 7.77 5.067 8.044z"
       stroke="#000"
       stroke-width=".903"
       id="path9" />
    <path
       d="m 125.385,24.693 c -5.208,-0.268 -9.413,1.332 -12.396,4.264 -2.983,2.932 -4.762,6.995 -5.961,11.598 l -0.006,0.016 -0.004,0.018 c -0.686,2.826 -1.816,6.248 -2.701,9.621 -0.885,3.373 -1.587,6.675 -1.129,9.688 l 4.191,-0.637 c -0.274,-1.8 0.202,-4.785 1.039,-7.975 0.59,-2.25 1.273,-4.56 1.92,-6.842 1.234,0.744 2.519,1.393 4.014,1.742 2.514,0.588 5.386,0.335 9.018,-0.893 l 0.027,-0.008 0.027,-0.01 c 2.35,-0.865 4.848,-2.217 6.906,-4.186 2.058,-1.969 3.682,-4.643 3.902,-7.883 l 0.01,-0.164 -0.014,-0.162 c -0.198,-2.302 -1.045,-4.36 -2.619,-5.77 -1.574,-1.41 -3.654,-2.096 -6.064,-2.404 l -0.08,-0.01 z m -0.307,4.236 c 1.868,0.249 3.031,0.74 3.701,1.34 0.646,0.578 1.029,1.367 1.184,2.787 -0.174,1.947 -1.099,3.567 -2.564,4.969 -1.495,1.431 -3.52,2.555 -5.414,3.256 -3.156,1.063 -5.084,1.146 -6.668,0.775 -1.192,-0.279 -2.371,-0.96 -3.684,-1.828 1.061,-3.471 2.43,-6.38 4.328,-8.246 2.152,-2.115 4.885,-3.251 9.117,-3.053 z M 143.99,2.057 c -2.015,9.563 -6.032,16.547 -8.32,32.031 -0.605,4.091 -0.272,7.206 1.178,9.473 1.45,2.267 4.164,3.214 6.646,2.84 4.964,-0.748 9.934,-5.268 13.115,-11.885 l -3.822,-1.836 c -2.716,5.649 -7.337,9.139 -9.926,9.529 -1.294,0.195 -1.849,-0.008 -2.441,-0.934 -0.592,-0.926 -1.075,-3.048 -0.555,-6.566 2.21,-14.952 6.117,-21.537 8.275,-31.777 z m 32.395,22.629 c -0.111,11.797 -6.178,17.246 -9.807,17.58 -1.814,0.167 -3.085,-0.45 -3.947,-2.635 -0.862,-2.185 -0.96,-6.208 1.109,-12.049 l -3.998,-1.416 c -2.28,6.434 -2.485,11.402 -1.057,15.021 1.428,3.619 4.847,5.617 8.281,5.301 6.869,-0.633 13.534,-8.542 13.658,-21.764 z m 9.19692,0.721616 c -2.582,3.658 -4.31492,8.025384 -4.19292,12.918384 0.061,2.447 0.549,4.826 2.246,6.545 1.697,1.719 4.52,2.124 7.408,1.113 l -1.4,-4.002 c -1.969,0.689 -2.512,0.393 -2.99,-0.092 -0.478,-0.485 -0.977,-1.811 -1.023,-3.67 -0.093,-3.717 1.61792,-7.817384 3.41792,-10.368384 z M 202.578,24.639 c -0.943,-0.043 -1.834,0.026 -2.621,0.092 l -0.205,0.018 -0.197,0.055 c -3.595,1.02 -6.236,2.886 -7.551,5.539 -1.315,2.653 -1.243,5.746 -0.449,9.041 l 0.029,0.117 0.041,0.113 c 1.511,4.139 5.353,6.506 9.332,6.895 3.979,0.389 8.284,-1.082 11.146,-4.559 l -3.273,-2.695 c -1.901,2.309 -4.81,3.292 -7.461,3.033 -2.165,-0.212 -3.988,-1.215 -5.094,-2.914 1.325,-0.386 3.888,-0.928 6.516,-1.891 2.796,-1.025 5.859,-2.433 6.965,-5.582 l 0.186,-0.527 -0.098,-0.549 c -0.511,-2.858 -2.325,-4.842 -4.326,-5.605 -1.001,-0.382 -1.996,-0.537 -2.939,-0.58 z m -2.062,4.33 c 1.345,-0.097 2.685,-0.094 3.49,0.213 0.677,0.258 1.09,0.71 1.404,1.676 -0.562,0.837 -1.982,1.874 -4.078,2.643 -2.133,0.782 -4.332,1.252 -6.045,1.744 -0.016,-1.197 0.129,-2.234 0.518,-3.02 0.671,-1.355 2.014,-2.448 4.711,-3.256 z"
       stroke-width=".378"
       stroke="#1a1a1a"
       id="path10"
       style="stroke-width:1.25;stroke-dasharray:none;fill:#bc0c4f;fill-opacity:1;stroke:#370217;stroke-opacity:0.71935093"
       sodipodi:nodetypes="cscccsccccccccscccsccccccccccccccsscccscccccsccsccccssccscccccccscccscccccccccccccccccc" />
  </g>
  <path
     d="m 187.81961,24.000399 c -0.968,-8.659 -13.085,-3.87 -8.572,-15.1470001 0.719,-1.797 1.797,-3.369 3.979,-3.733 5.22,-0.871 6.08,7.9950001 4.952,8.5290001 -0.683,0.324 0.494,-0.989 0.832,-1.665 0.74,-1.48 1.759,-3.4050001 3.101,-4.4000001 2.212,-1.641 7.73,-1.693 8.072,2.068 0.12,1.3160001 -0.456,2.6170001 -1.364,3.5850001 -1.427,1.522 -3.486,2.3 -4.949,3.762 -2.421,2.418 -3.73,4.673 -5.345,7.559 z"
     fill="#d35f8d"
     stroke-width="1.954"
     stroke="#fff"
     id="path12"
     inkscape:label="path12"
     style="fill:#bc0c4f;fill-opacity:1;stroke:#370217;stroke-width:1.354;stroke-dasharray:none;stroke-opacity:0.71935093" />
</svg>
